# Blender 3.3.1
# www.blender.org
o Cylinder
v 3.368078 -0.130566 167.737854
v -4.446470 -0.130566 167.546021
v -12.242192 -0.130566 166.970963
v -20.000305 -0.130566 166.014099
v -27.702126 -0.130566 164.677704
v -35.329098 -0.130566 162.965012
v -42.862835 -0.130566 160.880142
v -50.285206 -0.130566 158.428131
v -57.578323 -0.130566 155.614853
v -64.724602 -0.130566 152.447128
v -71.706848 -0.130566 148.932556
v -78.508232 -0.130566 145.079620
v -85.112373 -0.130566 140.897598
v -91.503349 -0.130566 136.396561
v -97.665787 -0.130566 131.587357
v -103.584808 -0.130566 126.481575
v -109.246170 -0.130566 121.091499
v -114.636246 -0.130566 115.430138
v -119.742027 -0.130566 109.511116
v -124.551231 -0.130566 103.348679
v -129.052277 -0.130566 96.957703
v -133.234299 -0.130566 90.353561
v -137.087234 -0.130566 83.552177
v -140.601807 -0.130566 76.569931
v -143.769531 -0.130566 69.423645
v -146.582809 -0.130566 62.130531
v -149.034821 -0.130566 54.708160
v -151.119690 -0.130566 47.174423
v -152.832382 -0.130566 39.547451
v -154.168777 -0.130566 31.845631
v -155.125641 -0.130566 24.087517
v -155.700699 -0.130566 16.291794
v -155.892532 -0.130566 8.477247
v -155.700699 -0.130566 0.662700
v -155.125641 -0.130566 -7.133022
v -154.168777 -0.130566 -14.891136
v -152.832382 -0.130566 -22.592957
v -151.119690 -0.130566 -30.219927
v -149.034821 -0.130566 -37.753662
v -146.582809 -0.130566 -45.176033
v -143.769531 -0.130566 -52.469154
v -140.601807 -0.130566 -59.615433
v -137.087234 -0.130566 -66.597679
v -133.234299 -0.130566 -73.399063
v -129.052277 -0.130566 -80.003204
v -124.551231 -0.130566 -86.394180
v -119.742027 -0.130566 -92.556618
v -114.636246 -0.130566 -98.475639
v -109.246170 -0.130566 -104.137001
v -103.584808 -0.130566 -109.527077
v -97.665787 -0.130566 -114.632858
v -91.503349 -0.130566 -119.442062
v -85.112373 -0.130566 -123.943100
v -78.508232 -0.130566 -128.125122
v -71.706848 -0.130566 -131.978058
v -64.724602 -0.130566 -135.492630
v -57.578323 -0.130566 -138.660355
v -50.285206 -0.130566 -141.473633
v -42.862835 -0.130566 -143.925644
v -35.329098 -0.130566 -146.010513
v -27.702126 -0.130566 -147.723206
v -20.000305 -0.130566 -149.059601
v -12.242192 -0.130566 -150.016464
v -4.446470 -0.130566 -150.591522
v 3.368078 -0.130566 -150.783356
v 11.182625 -0.130566 -150.591522
v 18.978348 -0.130566 -150.016464
v 26.736462 -0.130566 -149.059601
v 34.438282 -0.130566 -147.723206
v 42.065250 -0.130566 -146.010513
v 49.598988 -0.130566 -143.925644
v 57.021358 -0.130566 -141.473633
v 64.314476 -0.130566 -138.660355
v 71.460762 -0.130566 -135.492630
v 78.443008 -0.130566 -131.978058
v 85.244392 -0.130566 -128.125122
v 91.848534 -0.130566 -123.943100
v 98.239510 -0.130566 -119.442062
v 104.401947 -0.130566 -114.632858
v 110.320969 -0.130566 -109.527077
v 115.982330 -0.130566 -104.137001
v 121.372406 -0.130566 -98.475639
v 126.478188 -0.130566 -92.556618
v 131.287384 -0.130566 -86.394180
v 135.788422 -0.130566 -80.003204
v 139.970444 -0.130566 -73.399063
v 143.823380 -0.130566 -66.597679
v 147.337952 -0.130566 -59.615433
v 150.505676 -0.130566 -52.469154
v 153.318954 -0.130566 -45.176033
v 155.770966 -0.130566 -37.753662
v 157.855835 -0.130566 -30.219927
v 159.568527 -0.130566 -22.592957
v 160.904922 -0.130566 -14.891136
v 161.861786 -0.130566 -7.133022
v 162.436844 -0.130566 0.662700
v 162.628677 -0.130566 8.477247
v 162.436844 -0.130566 16.291794
v 161.861786 -0.130566 24.087517
v 160.904922 -0.130566 31.845631
v 159.568527 -0.130566 39.547451
v 157.855835 -0.130566 47.174423
v 155.770966 -0.130566 54.708160
v 153.318954 -0.130566 62.130531
v 150.505676 -0.130566 69.423645
v 147.337952 -0.130566 76.569931
v 143.823380 -0.130566 83.552177
v 139.970444 -0.130566 90.353561
v 135.788422 -0.130566 96.957703
v 131.287384 -0.130566 103.348679
v 126.478188 -0.130566 109.511116
v 121.372406 -0.130566 115.430138
v 115.982330 -0.130566 121.091499
v 110.320969 -0.130566 126.481575
v 104.401947 -0.130566 131.587357
v 98.239510 -0.130566 136.396561
v 91.848534 -0.130566 140.897598
v 85.244392 -0.130566 145.079620
v 78.443008 -0.130566 148.932556
v 71.460762 -0.130566 152.447128
v 64.314476 -0.130566 155.614853
v 57.021358 -0.130566 158.428131
v 49.598988 -0.130566 160.880142
v 42.065250 -0.130566 162.965012
v 34.438282 -0.130566 164.677704
v 26.736462 -0.130566 166.014099
v 18.978348 -0.130566 166.970963
v 11.182625 -0.130566 167.546021
v 3.368078 -0.130566 161.031113
v -4.117386 -0.130566 160.847366
v -11.584817 -0.130566 160.296524
v -19.016220 -0.130566 159.379959
v -26.393707 -0.130566 158.099823
v -33.699493 -0.130566 156.459274
v -40.915970 -0.130566 154.462204
v -48.025776 -0.130566 152.113434
v -55.011765 -0.130566 149.418640
v -61.857105 -0.130566 146.384323
v -68.545319 -0.130566 143.017746
v -75.060287 -0.130566 139.327072
v -81.386307 -0.130566 135.321152
v -87.508156 -0.130566 131.009659
v -93.411079 -0.130566 126.402985
v -99.080841 -0.130566 121.512207
v -104.503792 -0.130566 116.349121
v -109.666878 -0.130566 110.926170
v -114.557655 -0.130566 105.256409
v -119.164337 -0.130566 99.353485
v -123.475822 -0.130566 93.231636
v -127.481743 -0.130566 86.905617
v -131.172424 -0.130566 80.390648
v -134.539001 -0.130566 73.702431
v -137.573318 -0.130566 66.857086
v -140.268112 -0.130566 59.871094
v -142.616882 -0.130566 52.761292
v -144.613953 -0.130566 45.544815
v -146.254501 -0.130566 38.239029
v -147.534637 -0.130566 30.861546
v -148.451202 -0.130566 23.430141
v -149.002045 -0.130566 15.962711
v -149.185791 -0.130566 8.477247
v -149.002045 -0.130566 0.991784
v -148.451202 -0.130566 -6.475647
v -147.534637 -0.130566 -13.907051
v -146.254501 -0.130566 -21.284538
v -144.613953 -0.130566 -28.590322
v -142.616882 -0.130566 -35.806801
v -140.268112 -0.130566 -42.916603
v -137.573318 -0.130566 -49.902596
v -134.539001 -0.130566 -56.747932
v -131.172424 -0.130566 -63.436150
v -127.481743 -0.130566 -69.951118
v -123.475822 -0.130566 -76.277138
v -119.164337 -0.130566 -82.398987
v -114.557655 -0.130566 -88.301910
v -109.666878 -0.130566 -93.971672
v -104.503792 -0.130566 -99.394623
v -99.080841 -0.130566 -104.557709
v -93.411079 -0.130566 -109.448486
v -87.508156 -0.130566 -114.055168
v -81.386307 -0.130566 -118.366653
v -75.060287 -0.130566 -122.372574
v -68.545319 -0.130566 -126.063248
v -61.857105 -0.130566 -129.429825
v -55.011765 -0.130566 -132.464142
v -48.025772 -0.130566 -135.158936
v -40.915970 -0.130566 -137.507706
v -33.699493 -0.130566 -139.504776
v -26.393705 -0.130566 -141.145325
v -19.016220 -0.130566 -142.425461
v -11.584817 -0.130566 -143.342026
v -4.117386 -0.130566 -143.892868
v 3.368078 -0.130566 -144.076614
v 10.853541 -0.130566 -143.892868
v 18.320972 -0.130566 -143.342026
v 25.752377 -0.130566 -142.425461
v 33.129864 -0.130566 -141.145325
v 40.435646 -0.130566 -139.504776
v 47.652122 -0.130566 -137.507706
v 54.761929 -0.130566 -135.158936
v 61.747917 -0.130566 -132.464142
v 68.593262 -0.130566 -129.429825
v 75.281479 -0.130566 -126.063248
v 81.796448 -0.130566 -122.372574
v 88.122467 -0.130566 -118.366653
v 94.244316 -0.130566 -114.055168
v 100.147240 -0.130566 -109.448486
v 105.817001 -0.130566 -104.557709
v 111.239952 -0.130566 -99.394623
v 116.403038 -0.130566 -93.971672
v 121.293816 -0.130566 -88.301910
v 125.900497 -0.130566 -82.398987
v 130.211975 -0.130566 -76.277138
v 134.217896 -0.130566 -69.951118
v 137.908569 -0.130566 -63.436150
v 141.275146 -0.130566 -56.747932
v 144.309464 -0.130566 -49.902596
v 147.004257 -0.130566 -42.916603
v 149.353027 -0.130566 -35.806801
v 151.350098 -0.130566 -28.590322
v 152.990646 -0.130566 -21.284536
v 154.270782 -0.130566 -13.907051
v 155.187347 -0.130566 -6.475647
v 155.738190 -0.130566 0.991784
v 155.921936 -0.130566 8.477247
v 155.738190 -0.130566 15.962711
v 155.187347 -0.130566 23.430141
v 154.270782 -0.130566 30.861546
v 152.990646 -0.130566 38.239033
v 151.350098 -0.130566 45.544815
v 149.353027 -0.130566 52.761292
v 147.004257 -0.130566 59.871101
v 144.309464 -0.130566 66.857086
v 141.275146 -0.130566 73.702431
v 137.908569 -0.130566 80.390648
v 134.217896 -0.130566 86.905617
v 130.211975 -0.130566 93.231636
v 125.900497 -0.130566 99.353485
v 121.293816 -0.130566 105.256409
v 116.403038 -0.130566 110.926170
v 111.239952 -0.130566 116.349121
v 105.817001 -0.130566 121.512207
v 100.147240 -0.130566 126.402985
v 94.244316 -0.130566 131.009659
v 88.122467 -0.130566 135.321152
v 81.796448 -0.130566 139.327072
v 75.281479 -0.130566 143.017746
v 68.593262 -0.130566 146.384323
v 61.747917 -0.130566 149.418640
v 54.761925 -0.130566 152.113434
v 47.652122 -0.130566 154.462204
v 40.435646 -0.130566 156.459274
v 33.129860 -0.130566 158.099823
v 25.752377 -0.130566 159.379959
v 18.320972 -0.130566 160.296524
v 10.853541 -0.130566 160.847366
v 3.368078 5.965546 161.031113
v -4.117386 5.965546 160.847366
v -11.584817 5.965546 160.296524
v -19.016220 5.965546 159.379959
v -26.393707 5.965546 158.099823
v -33.699493 5.965546 156.459274
v -40.915970 5.965546 154.462204
v -48.025776 5.965546 152.113434
v -55.011765 5.965546 149.418640
v -61.857105 5.965546 146.384323
v -68.545319 5.965546 143.017746
v -75.060287 5.965546 139.327072
v -81.386307 5.965546 135.321152
v -87.508156 5.965546 131.009659
v -93.411079 5.965546 126.402985
v -99.080841 5.965546 121.512207
v -104.503792 5.965546 116.349121
v -109.666878 5.965546 110.926170
v -114.557655 5.965546 105.256409
v -119.164337 5.965546 99.353485
v -123.475822 5.965546 93.231636
v -127.481743 5.965546 86.905617
v -131.172424 5.965546 80.390648
v -134.539001 5.965546 73.702431
v -137.573318 5.965546 66.857086
v -140.268112 5.965546 59.871094
v -142.616882 5.965546 52.761292
v -144.613953 5.965546 45.544815
v -146.254501 5.965546 38.239029
v -147.534637 5.965546 30.861546
v -148.451202 5.965546 23.430141
v -149.002045 5.965546 15.962711
v -149.185791 5.965546 8.477247
v -149.002045 5.965546 0.991784
v -148.451202 5.965546 -6.475647
v -147.534637 5.965546 -13.907051
v -146.254501 5.965546 -21.284538
v -144.613953 5.965546 -28.590322
v -142.616882 5.965546 -35.806801
v -140.268112 5.965546 -42.916603
v -137.573318 5.965546 -49.902596
v -134.539001 5.965546 -56.747932
v -131.172424 5.965546 -63.436150
v -127.481743 5.965546 -69.951118
v -123.475822 5.965546 -76.277138
v -119.164337 5.965546 -82.398987
v -114.557655 5.965546 -88.301910
v -109.666878 5.965546 -93.971672
v -104.503792 5.965546 -99.394623
v -99.080841 5.965546 -104.557709
v -93.411079 5.965546 -109.448486
v -87.508156 5.965546 -114.055168
v -81.386307 5.965546 -118.366653
v -75.060287 5.965546 -122.372574
v -68.545319 5.965546 -126.063248
v -61.857105 5.965546 -129.429825
v -55.011765 5.965546 -132.464142
v -48.025772 5.965546 -135.158936
v -40.915970 5.965546 -137.507706
v -33.699493 5.965546 -139.504776
v -26.393705 5.965546 -141.145325
v -19.016220 5.965546 -142.425461
v -11.584817 5.965546 -143.342026
v -4.117386 5.965546 -143.892868
v 3.368078 5.965546 -144.076614
v 10.853541 5.965546 -143.892868
v 18.320972 5.965546 -143.342026
v 25.752377 5.965546 -142.425461
v 33.129864 5.965546 -141.145325
v 40.435646 5.965546 -139.504776
v 47.652122 5.965546 -137.507706
v 54.761929 5.965546 -135.158936
v 61.747917 5.965546 -132.464142
v 68.593262 5.965546 -129.429825
v 75.281479 5.965546 -126.063248
v 81.796448 5.965546 -122.372574
v 88.122467 5.965546 -118.366653
v 94.244316 5.965546 -114.055168
v 100.147240 5.965546 -109.448486
v 105.817001 5.965546 -104.557709
v 111.239952 5.965546 -99.394623
v 116.403038 5.965546 -93.971672
v 121.293816 5.965546 -88.301910
v 125.900497 5.965546 -82.398987
v 130.211975 5.965546 -76.277138
v 134.217896 5.965546 -69.951118
v 137.908569 5.965546 -63.436150
v 141.275146 5.965546 -56.747932
v 144.309464 5.965546 -49.902596
v 147.004257 5.965546 -42.916603
v 149.353027 5.965546 -35.806801
v 151.350098 5.965546 -28.590322
v 152.990646 5.965546 -21.284536
v 154.270782 5.965546 -13.907051
v 155.187347 5.965546 -6.475647
v 155.738190 5.965546 0.991784
v 155.921936 5.965546 8.477247
v 155.738190 5.965546 15.962711
v 155.187347 5.965546 23.430141
v 154.270782 5.965546 30.861546
v 152.990646 5.965546 38.239033
v 151.350098 5.965546 45.544815
v 149.353027 5.965546 52.761292
v 147.004257 5.965546 59.871101
v 144.309464 5.965546 66.857086
v 141.275146 5.965546 73.702431
v 137.908569 5.965546 80.390648
v 134.217896 5.965546 86.905617
v 130.211975 5.965546 93.231636
v 125.900497 5.965546 99.353485
v 121.293816 5.965546 105.256409
v 116.403038 5.965546 110.926170
v 111.239952 5.965546 116.349121
v 105.817001 5.965546 121.512207
v 100.147240 5.965546 126.402985
v 94.244316 5.965546 131.009659
v 88.122467 5.965546 135.321152
v 81.796448 5.965546 139.327072
v 75.281479 5.965546 143.017746
v 68.593262 5.965546 146.384323
v 61.747917 5.965546 149.418640
v 54.761925 5.965546 152.113434
v 47.652122 5.965546 154.462204
v 40.435646 5.965546 156.459274
v 33.129860 5.965546 158.099823
v 25.752377 5.965546 159.379959
v 18.320972 5.965546 160.296524
v 10.853541 5.965546 160.847366
v 3.368078 5.965546 167.737854
v -4.446470 5.965546 167.546021
v -12.242192 5.965546 166.970963
v -20.000305 5.965546 166.014099
v -27.702126 5.965546 164.677704
v -35.329098 5.965546 162.965012
v -42.862835 5.965546 160.880142
v -50.285206 5.965546 158.428131
v -57.578323 5.965546 155.614853
v -64.724602 5.965546 152.447128
v -71.706848 5.965546 148.932556
v -78.508232 5.965546 145.079620
v -85.112373 5.965546 140.897598
v -91.503349 5.965546 136.396561
v -97.665787 5.965546 131.587357
v -103.584808 5.965546 126.481575
v -109.246170 5.965546 121.091499
v -114.636246 5.965546 115.430138
v -119.742027 5.965546 109.511116
v -124.551231 5.965546 103.348679
v -129.052277 5.965546 96.957703
v -133.234299 5.965546 90.353561
v -137.087234 5.965546 83.552177
v -140.601807 5.965546 76.569931
v -143.769531 5.965546 69.423645
v -146.582809 5.965546 62.130531
v -149.034821 5.965546 54.708160
v -151.119690 5.965546 47.174423
v -152.832382 5.965546 39.547451
v -154.168777 5.965546 31.845631
v -155.125641 5.965546 24.087517
v -155.700699 5.965546 16.291794
v -155.892532 5.965546 8.477247
v -155.700699 5.965546 0.662700
v -155.125641 5.965546 -7.133022
v -154.168777 5.965546 -14.891136
v -152.832382 5.965546 -22.592957
v -151.119690 5.965546 -30.219927
v -149.034821 5.965546 -37.753662
v -146.582809 5.965546 -45.176033
v -143.769531 5.965546 -52.469154
v -140.601807 5.965546 -59.615433
v -137.087234 5.965546 -66.597679
v -133.234299 5.965546 -73.399063
v -129.052277 5.965546 -80.003204
v -124.551231 5.965546 -86.394180
v -119.742027 5.965546 -92.556618
v -114.636246 5.965546 -98.475639
v -109.246170 5.965546 -104.137001
v -103.584808 5.965546 -109.527077
v -97.665787 5.965546 -114.632858
v -91.503349 5.965546 -119.442062
v -85.112373 5.965546 -123.943100
v -78.508232 5.965546 -128.125122
v -71.706848 5.965546 -131.978058
v -64.724602 5.965546 -135.492630
v -57.578323 5.965546 -138.660355
v -50.285206 5.965546 -141.473633
v -42.862835 5.965546 -143.925644
v -35.329098 5.965546 -146.010513
v -27.702126 5.965546 -147.723206
v -20.000305 5.965546 -149.059601
v -12.242192 5.965546 -150.016464
v -4.446470 5.965546 -150.591522
v 3.368078 5.965546 -150.783356
v 11.182625 5.965546 -150.591522
v 18.978348 5.965546 -150.016464
v 26.736462 5.965546 -149.059601
v 34.438282 5.965546 -147.723206
v 42.065250 5.965546 -146.010513
v 49.598988 5.965546 -143.925644
v 57.021358 5.965546 -141.473633
v 64.314476 5.965546 -138.660355
v 71.460762 5.965546 -135.492630
v 78.443008 5.965546 -131.978058
v 85.244392 5.965546 -128.125122
v 91.848534 5.965546 -123.943100
v 98.239510 5.965546 -119.442062
v 104.401947 5.965546 -114.632858
v 110.320969 5.965546 -109.527077
v 115.982330 5.965546 -104.137001
v 121.372406 5.965546 -98.475639
v 126.478188 5.965546 -92.556618
v 131.287384 5.965546 -86.394180
v 135.788422 5.965546 -80.003204
v 139.970444 5.965546 -73.399063
v 143.823380 5.965546 -66.597679
v 147.337952 5.965546 -59.615433
v 150.505676 5.965546 -52.469154
v 153.318954 5.965546 -45.176033
v 155.770966 5.965546 -37.753662
v 157.855835 5.965546 -30.219927
v 159.568527 5.965546 -22.592957
v 160.904922 5.965546 -14.891136
v 161.861786 5.965546 -7.133022
v 162.436844 5.965546 0.662700
v 162.628677 5.965546 8.477247
v 162.436844 5.965546 16.291794
v 161.861786 5.965546 24.087517
v 160.904922 5.965546 31.845631
v 159.568527 5.965546 39.547451
v 157.855835 5.965546 47.174423
v 155.770966 5.965546 54.708160
v 153.318954 5.965546 62.130531
v 150.505676 5.965546 69.423645
v 147.337952 5.965546 76.569931
v 143.823380 5.965546 83.552177
v 139.970444 5.965546 90.353561
v 135.788422 5.965546 96.957703
v 131.287384 5.965546 103.348679
v 126.478188 5.965546 109.511116
v 121.372406 5.965546 115.430138
v 115.982330 5.965546 121.091499
v 110.320969 5.965546 126.481575
v 104.401947 5.965546 131.587357
v 98.239510 5.965546 136.396561
v 91.848534 5.965546 140.897598
v 85.244392 5.965546 145.079620
v 78.443008 5.965546 148.932556
v 71.460762 5.965546 152.447128
v 64.314476 5.965546 155.614853
v 57.021358 5.965546 158.428131
v 49.598988 5.965546 160.880142
v 42.065250 5.965546 162.965012
v 34.438282 5.965546 164.677704
v 26.736462 5.965546 166.014099
v 18.978348 5.965546 166.970963
v 11.182625 5.965546 167.546021
vn -0.0000 1.0000 -0.0000
vn -0.7572 -0.0000 0.6532
vn 0.3137 -0.0000 0.9495
vn 0.9142 -0.0000 0.4052
vn -0.7242 -0.0000 0.6895
vn 0.3599 -0.0000 0.9330
vn 0.9330 -0.0000 0.3599
vn -0.6895 -0.0000 0.7242
vn 0.4052 -0.0000 0.9142
vn 0.9495 -0.0000 0.3137
vn -0.6532 -0.0000 0.7572
vn 0.4496 -0.0000 0.8932
vn 0.9638 -0.0000 0.2667
vn -0.6152 -0.0000 0.7883
vn 0.4929 -0.0000 0.8701
vn 0.9757 -0.0000 0.2191
vn -0.5758 -0.0000 0.8176
vn 0.5350 -0.0000 0.8449
vn 0.9853 -0.0000 0.1710
vn -0.5350 -0.0000 0.8449
vn 0.5758 -0.0000 0.8176
vn 0.9925 -0.0000 0.1224
vn -0.4929 -0.0000 0.8701
vn 0.6152 -0.0000 0.7883
vn 0.9973 -0.0000 0.0736
vn -0.4496 -0.0000 0.8932
vn 0.6532 -0.0000 0.7572
vn 0.9997 -0.0000 0.0245
vn -0.4052 -0.0000 0.9142
vn 0.6895 -0.0000 0.7242
vn 0.9997 -0.0000 -0.0245
vn -0.3599 -0.0000 0.9330
vn 0.7242 -0.0000 0.6895
vn 0.9973 -0.0000 -0.0736
vn -0.3137 -0.0000 0.9495
vn 0.7572 -0.0000 0.6532
vn 0.9925 -0.0000 -0.1224
vn -0.2667 -0.0000 0.9638
vn 0.7883 -0.0000 0.6152
vn 0.9853 -0.0000 -0.1710
vn -0.2191 -0.0000 0.9757
vn 0.8176 -0.0000 0.5758
vn 0.9757 -0.0000 -0.2191
vn -0.1710 -0.0000 0.9853
vn 0.8449 -0.0000 0.5350
vn 0.9638 -0.0000 -0.2667
vn -0.1224 -0.0000 0.9925
vn 0.8701 -0.0000 0.4929
vn 0.9495 -0.0000 -0.3137
vn -0.0736 -0.0000 0.9973
vn 0.8932 -0.0000 0.4496
vn 0.9330 -0.0000 -0.3599
vn -0.0245 -0.0000 0.9997
vn 0.9142 -0.0000 -0.4052
vn -0.0245 -0.0000 -0.9997
vn 0.8932 -0.0000 -0.4496
vn -0.0736 -0.0000 -0.9973
vn 0.8701 -0.0000 -0.4929
vn -0.1224 -0.0000 -0.9925
vn 0.8449 -0.0000 -0.5350
vn -0.1710 -0.0000 -0.9853
vn 0.8176 -0.0000 -0.5758
vn -0.2191 -0.0000 -0.9757
vn 0.7883 -0.0000 -0.6152
vn -0.2667 -0.0000 -0.9638
vn 0.7572 -0.0000 -0.6532
vn -0.3137 -0.0000 -0.9495
vn 0.7242 -0.0000 -0.6895
vn -0.3599 -0.0000 -0.9330
vn 0.6895 -0.0000 -0.7242
vn -0.4052 -0.0000 -0.9142
vn 0.6532 -0.0000 -0.7572
vn -0.4496 -0.0000 -0.8932
vn 0.6152 -0.0000 -0.7883
vn -0.4929 -0.0000 -0.8701
vn 0.5758 -0.0000 -0.8176
vn -0.5350 -0.0000 -0.8449
vn 0.5350 -0.0000 -0.8449
vn -0.5758 -0.0000 -0.8176
vn 0.4929 -0.0000 -0.8701
vn -0.6152 -0.0000 -0.7883
vn 0.4496 -0.0000 -0.8932
vn -0.6532 -0.0000 -0.7572
vn 0.4052 -0.0000 -0.9142
vn -0.6895 -0.0000 -0.7242
vn 0.3599 -0.0000 -0.9330
vn -0.7242 -0.0000 -0.6895
vn 0.3137 -0.0000 -0.9495
vn -0.7572 -0.0000 -0.6532
vn 0.2667 -0.0000 -0.9638
vn -0.7883 -0.0000 -0.6152
vn 0.2191 -0.0000 -0.9757
vn -0.8176 -0.0000 -0.5758
vn 0.1710 -0.0000 -0.9853
vn -0.8449 -0.0000 -0.5350
vn 0.1224 -0.0000 -0.9925
vn -0.8701 -0.0000 -0.4929
vn 0.0736 -0.0000 -0.9973
vn -0.8932 -0.0000 -0.4496
vn 0.0245 -0.0000 -0.9997
vn -0.9142 -0.0000 -0.4052
vn -0.9330 -0.0000 -0.3599
vn -0.9495 -0.0000 -0.3137
vn 0.2667 -0.0000 0.9638
vn -0.7883 -0.0000 0.6152
vn 0.2191 -0.0000 0.9757
vn -0.8176 -0.0000 0.5758
vn 0.1710 -0.0000 0.9853
vn -0.8449 -0.0000 0.5350
vn 0.1224 -0.0000 0.9925
vn -0.8701 -0.0000 0.4929
vn 0.0736 -0.0000 0.9973
vn -0.8932 -0.0000 0.4496
vn 0.0245 -0.0000 0.9997
vn -0.9142 -0.0000 0.4052
vn -0.9330 -0.0000 0.3599
vn -0.9495 -0.0000 0.3137
vn -0.9638 -0.0000 0.2667
vn -0.9757 -0.0000 0.2191
vn -0.9853 -0.0000 0.1710
vn -0.9925 -0.0000 0.1224
vn -0.9973 -0.0000 0.0736
vn -0.9997 -0.0000 0.0245
vn -0.9997 -0.0000 -0.0245
vn -0.9973 -0.0000 -0.0736
vn -0.9925 -0.0000 -0.1224
vn -0.9853 -0.0000 -0.1710
vn -0.9757 -0.0000 -0.2191
vn -0.9638 -0.0000 -0.2667
vt 4.862042 2.406466
vt 4.862042 2.406466
vt 4.862042 2.406466
vt 4.862042 2.406466
vt 4.862042 2.406466
vt 4.862042 2.406466
vt 4.862042 2.406466
vt 4.862042 2.406466
vt 4.862042 2.406466
vt 4.862042 2.406466
vt 4.862042 2.406466
vt 4.862042 2.406466
vt 4.862042 2.406466
vt 4.862042 2.406466
vt 4.862042 2.406466
vt 4.862042 2.406466
vt 4.862042 2.406466
vt 4.862042 2.406466
vt 4.862042 2.406466
vt 4.862042 2.406466
vt 4.862042 2.406466
vt 4.862042 2.406466
vt 4.862042 2.406466
vt 4.862042 2.406466
vt 4.862042 2.406466
vt 4.862042 2.406466
vt 4.862042 2.406466
vt 4.862042 2.406466
vt 4.862042 2.406466
vt 4.862042 2.406466
vt 4.862042 2.406466
vt 4.862042 2.406466
vt 4.862042 2.406466
vt 4.862042 2.406466
vt 4.862042 2.406466
vt 4.862042 2.406466
vt 4.862042 2.406466
vt 4.862042 2.406466
vt 4.862042 2.406466
vt 4.862042 2.406466
vt 4.862042 2.406466
vt 4.862042 2.406466
vt 4.862042 2.406466
vt 4.862042 2.406466
vt 4.862042 2.406466
vt 4.862042 2.406466
vt 4.862042 2.406466
vt 4.862042 2.406466
vt 4.862042 2.406466
vt 4.862042 2.406466
vt 4.862042 2.406466
vt 4.862042 2.406466
vt 4.862042 2.406466
vt 4.862042 2.406466
vt 4.862042 2.406466
vt 4.862042 2.406466
vt 4.862042 2.406466
vt 4.862042 2.406466
vt 4.862042 2.406466
vt 4.862042 2.406466
vt 4.862042 2.406466
vt 4.862042 2.406466
vt 4.862042 2.406466
vt 4.862042 2.406466
vt 4.862042 2.406466
vt 4.862042 2.406466
vt 4.862042 2.406466
vt 4.862042 2.406466
vt 4.862042 2.406466
vt 4.862042 2.406466
vt 4.862042 2.406466
vt 4.862042 2.406466
vt 4.862042 2.406466
vt 4.862042 2.406466
vt 4.862042 2.406466
vt 4.862042 2.406466
vt 4.862042 2.406466
vt 4.862042 2.406466
vt 4.862042 2.406466
vt 4.862042 2.406466
vt 4.862042 2.406466
vt 4.862042 2.406466
vt 4.862042 2.406466
vt 4.862042 2.406466
vt 4.862042 2.406466
vt 4.862042 2.406466
vt 4.862042 2.406466
vt 4.862042 2.406466
vt 4.862042 2.406466
vt 4.862042 2.406466
vt 4.862042 2.406466
vt 4.862042 2.406466
vt 4.862042 2.406466
vt 4.862042 2.406466
vt 4.862042 2.406466
vt 4.862042 2.406466
vt 4.862042 2.406466
vt 4.862042 2.406466
vt 4.862042 2.406466
vt 4.862042 2.406466
vt 4.862042 2.406466
vt 4.862042 2.406466
vt 4.862042 2.406466
vt 4.862042 2.406466
vt 4.862042 2.406466
vt 4.862042 2.406466
vt 4.862042 2.406466
vt 4.862042 2.406466
vt 4.862042 2.406466
vt 4.862042 2.406466
vt 4.862042 2.406466
vt 4.862042 2.406466
vt 4.862042 2.406466
vt 4.862042 2.406466
vt 4.862042 2.406466
vt 4.862042 2.406466
vt 4.862042 2.406466
vt 4.862042 2.406466
vt 4.862042 2.406466
vt 4.862042 2.406466
vt 4.862042 2.406466
vt 4.862042 2.406466
vt 4.862042 2.406466
vt 4.862042 2.406466
vt 4.862042 2.406466
vt 4.862042 2.406466
vt 4.862042 2.406466
vt 4.862042 2.406466
vt 0.576379 4.866060
vt -1.754690 -1.827303
vt 0.791930 4.860771
vt -1.854211 -1.824860
vt 1.006959 4.844906
vt -1.953490 -1.817535
vt 1.220941 4.818512
vt -2.052288 -1.805349
vt 1.433380 4.781651
vt -2.150371 -1.788330
vt 1.643750 4.734412
vt -2.247500 -1.766520
vt 1.851555 4.676907
vt -2.343445 -1.739969
vt 2.056277 4.609271
vt -2.437966 -1.708741
vt 2.257443 4.531676
vt -2.530845 -1.672916
vt 2.454562 4.444302
vt -2.621855 -1.632575
vt 2.647150 4.347361
vt -2.710774 -1.587817
vt 2.834752 4.241086
vt -2.797391 -1.538749
vt 3.016900 4.125733
vt -2.881489 -1.485490
vt 3.193186 4.001585
vt -2.962882 -1.428170
vt 3.363163 3.868933
vt -3.041360 -1.366924
vt 3.526418 3.728099
vt -3.116736 -1.301901
vt 3.682580 3.579428
vt -3.188837 -1.233258
vt 3.831251 3.423273
vt -3.257479 -1.161161
vt 3.972086 3.260011
vt -3.322503 -1.085782
vt 4.104735 3.090033
vt -3.383748 -1.007303
vt 4.228881 2.913756
vt -3.441067 -0.925915
vt 4.344235 2.731595
vt -3.494326 -0.841810
vt 4.450519 2.543997
vt -3.543398 -0.755195
vt 4.547459 2.351405
vt -3.588155 -0.666275
vt 4.634825 2.154291
vt -3.628492 -0.575267
vt 4.712424 1.953128
vt -3.664320 -0.482389
vt 4.780057 1.748401
vt -3.695546 -0.387865
vt 4.837560 1.540598
vt -3.722096 -0.291922
vt 4.884807 1.330225
vt -3.743910 -0.194792
vt 4.921669 1.117788
vt -3.760930 -0.096709
vt 4.948058 0.903800
vt -3.773113 0.002091
vt 4.963922 0.688775
vt -3.780438 0.101369
vt 4.969214 0.473228
vt -3.782881 0.200888
vt 4.963926 0.257681
vt -3.780440 0.300406
vt 4.948059 0.042657
vt -3.773113 0.399684
vt 4.921669 -0.171335
vt -3.760930 0.498485
vt 4.884802 -0.383773
vt -3.743908 0.596569
vt 4.837565 -0.594144
vt -3.722098 0.693698
vt 4.780051 -0.801944
vt -3.695544 0.789640
vt 4.712421 -1.006674
vt -3.664319 0.884164
vt 4.634820 -1.207836
vt -3.628490 0.977042
vt 4.547452 -1.404949
vt -3.588152 1.068050
vt 4.450507 -1.597539
vt -3.543392 1.156970
vt 4.344234 -1.785139
vt -3.494326 1.243586
vt 4.228878 -1.967299
vt -3.441065 1.327690
vt 4.104735 -2.143579
vt -3.383748 1.409079
vt 3.972080 -2.313556
vt -3.322500 1.487558
vt 3.831243 -2.476818
vt -3.257475 1.562937
vt 3.682580 -2.632973
vt -3.188837 1.635034
vt 3.526419 -2.781645
vt -3.116737 1.703677
vt 3.363165 -2.922476
vt -3.041361 1.768699
vt 3.193186 -3.055128
vt -2.962882 1.829945
vt 3.016903 -3.179277
vt -2.881491 1.887265
vt 2.834749 -3.294629
vt -2.797390 1.940524
vt 2.647145 -3.400904
vt -2.710772 1.989591
vt 2.454557 -3.497845
vt -2.621853 2.034349
vt 2.257437 -3.585218
vt -2.530842 2.074690
vt 2.056277 -3.662817
vt -2.437966 2.110518
vt 1.851555 -3.730450
vt -2.343445 2.141744
vt 1.643749 -3.787956
vt -2.247500 2.168295
vt 1.433376 -3.835196
vt -2.150370 2.190106
vt 1.220941 -3.872057
vt -2.052288 2.207125
vt 1.006952 -3.898451
vt -1.953487 2.219311
vt 0.791927 -3.914312
vt -1.854209 2.226634
vt 0.576378 -3.919603
vt -1.754690 2.229077
vt 0.360836 -3.914312
vt -1.655173 2.226634
vt 0.145809 -3.898450
vt -1.555894 2.219311
vt -0.068183 -3.872058
vt -1.457093 2.207125
vt -0.280620 -3.835196
vt -1.359010 2.190106
vt -0.490994 -3.787956
vt -1.261879 2.168295
vt -0.698795 -3.730450
vt -1.165937 2.141744
vt -0.903525 -3.662817
vt -1.071412 2.110518
vt -1.104683 -3.585218
vt -0.978536 2.074690
vt -1.301801 -3.497845
vt -0.887526 2.034349
vt -1.494387 -3.400904
vt -0.798609 1.989591
vt -1.681992 -3.294630
vt -0.711991 1.940524
vt -1.864149 -3.179278
vt -0.627888 1.887265
vt -2.040431 -3.055127
vt -0.546498 1.829945
vt -2.210400 -2.922476
vt -0.468022 1.768699
vt -2.373667 -2.781645
vt -0.392641 1.703677
vt -2.529823 -2.632974
vt -0.320543 1.635034
vt -2.678491 -2.476819
vt -0.251903 1.562937
vt -2.819322 -2.313555
vt -0.186880 1.487558
vt -2.951975 -2.143579
vt -0.125634 1.409079
vt -3.076123 -1.967299
vt -0.068314 1.327689
vt -3.191481 -1.785140
vt -0.015053 1.243586
vt -3.297754 -1.597539
vt 0.034014 1.156970
vt -3.394691 -1.404949
vt 0.078770 1.068050
vt -3.482068 -1.207836
vt 0.119112 0.977042
vt -3.559666 -1.006674
vt 0.154940 0.884164
vt -3.627298 -0.801945
vt 0.186166 0.789641
vt -3.684803 -0.594144
vt 0.212716 0.693698
vt -3.732048 -0.383772
vt 0.234529 0.596568
vt -3.768908 -0.171335
vt 0.251547 0.498485
vt -3.795304 0.042653
vt 0.263735 0.399686
vt -3.811162 0.257680
vt 0.271056 0.300407
vt -3.816457 0.473227
vt 0.273501 0.200888
vt -3.811163 0.688770
vt 0.271057 0.101371
vt -3.795300 0.903799
vt 0.263733 0.002091
vt -3.768909 1.117787
vt 0.251548 -0.096708
vt -3.732047 1.330225
vt 0.234529 -0.194792
vt -3.684804 1.540598
vt 0.212717 -0.291922
vt -3.627301 1.748397
vt 0.186167 -0.387863
vt -3.559668 1.953126
vt 0.154940 -0.482388
vt -3.482069 2.154291
vt 0.119113 -0.575266
vt -3.394695 2.351403
vt 0.078772 -0.666274
vt -3.297753 2.543993
vt 0.034014 -0.755194
vt -3.191480 2.731592
vt -0.015054 -0.841809
vt -3.076129 2.913751
vt -0.068311 -0.925912
vt -2.951977 3.090034
vt -0.125633 -1.007303
vt -2.819327 3.260010
vt -0.186878 -1.085782
vt -2.678496 3.423270
vt -0.251900 -1.161160
vt -2.529825 3.579425
vt -0.320542 -1.233257
vt -2.373667 3.728099
vt -0.392641 -1.301900
vt -2.210405 3.868930
vt -0.468020 -1.366923
vt -2.040430 4.001579
vt -0.546498 -1.428167
vt -1.864150 4.125731
vt -0.627887 -1.485489
vt -1.681988 4.241083
vt -0.711992 -1.538747
vt -1.494391 4.347355
vt -0.798607 -1.587814
vt -1.301802 4.444297
vt -0.887526 -1.632573
vt -1.104687 4.531671
vt -0.978535 -1.672913
vt -0.903524 4.609269
vt -1.071413 -1.708741
vt -0.698795 4.676902
vt -1.165937 -1.739967
vt -0.490994 4.734409
vt -1.261879 -1.766518
vt -0.280624 4.781648
vt -1.359008 -1.788329
vt -0.068185 4.818510
vt -1.457092 -1.805348
vt 0.145802 4.844903
vt -1.555891 -1.817534
vt 0.360837 4.860768
vt -1.655174 -1.824859
vt -1.754690 -1.827303
vt -1.854211 -1.824860
vt -1.953490 -1.817535
vt -2.052288 -1.805349
vt -2.150371 -1.788330
vt -2.247500 -1.766520
vt -2.343445 -1.739969
vt -2.437966 -1.708741
vt -2.530845 -1.672916
vt -2.621855 -1.632575
vt -2.710774 -1.587817
vt -2.797391 -1.538749
vt -2.881489 -1.485490
vt -2.962882 -1.428170
vt -3.041360 -1.366924
vt -3.116736 -1.301901
vt -3.188837 -1.233258
vt -3.257479 -1.161161
vt -3.322503 -1.085782
vt -3.383748 -1.007303
vt -3.441067 -0.925915
vt -3.494326 -0.841810
vt -3.543398 -0.755195
vt -3.588155 -0.666275
vt -3.628492 -0.575267
vt -3.664320 -0.482389
vt -3.695546 -0.387865
vt -3.722096 -0.291922
vt -3.743910 -0.194792
vt -3.760930 -0.096709
vt -3.773113 0.002091
vt -3.780438 0.101369
vt -3.782881 0.200888
vt -3.780440 0.300406
vt -3.773113 0.399684
vt -3.760930 0.498485
vt -3.743908 0.596569
vt -3.722098 0.693698
vt -3.695544 0.789640
vt -3.664319 0.884164
vt -3.628490 0.977042
vt -3.588152 1.068050
vt -3.543392 1.156970
vt -3.494326 1.243586
vt -3.441065 1.327690
vt -3.383748 1.409079
vt -3.322500 1.487558
vt -3.257475 1.562937
vt -3.188837 1.635034
vt -3.116737 1.703677
vt -3.041361 1.768699
vt -2.962882 1.829945
vt -2.881491 1.887265
vt -2.797390 1.940524
vt -2.710772 1.989591
vt -2.621853 2.034349
vt -2.530842 2.074690
vt -2.437966 2.110518
vt -2.343445 2.141744
vt -2.247500 2.168295
vt -2.150370 2.190106
vt -2.052288 2.207125
vt -1.953487 2.219311
vt -1.854209 2.226634
vt -1.754690 2.229077
vt -1.655173 2.226634
vt -1.555894 2.219311
vt -1.457093 2.207125
vt -1.359010 2.190106
vt -1.261879 2.168295
vt -1.165937 2.141744
vt -1.071412 2.110518
vt -0.978536 2.074690
vt -0.887526 2.034349
vt -0.798609 1.989591
vt -0.711991 1.940524
vt -0.627888 1.887265
vt -0.546498 1.829945
vt -0.468022 1.768699
vt -0.392641 1.703677
vt -0.320543 1.635034
vt -0.251903 1.562937
vt -0.186880 1.487558
vt -0.125634 1.409079
vt -0.068314 1.327689
vt -0.015053 1.243586
vt 0.034014 1.156970
vt 0.078770 1.068050
vt 0.119112 0.977042
vt 0.154940 0.884164
vt 0.186166 0.789641
vt 0.212716 0.693698
vt 0.234529 0.596568
vt 0.251547 0.498485
vt 0.263735 0.399686
vt 0.271056 0.300407
vt 0.273501 0.200888
vt 0.271057 0.101371
vt 0.263733 0.002091
vt 0.251548 -0.096708
vt 0.234529 -0.194792
vt 0.212717 -0.291922
vt 0.186167 -0.387863
vt 0.154940 -0.482388
vt 0.119113 -0.575266
vt 0.078772 -0.666274
vt 0.034014 -0.755194
vt -0.015054 -0.841809
vt -0.068311 -0.925912
vt -0.125633 -1.007303
vt -0.186878 -1.085782
vt -0.251900 -1.161160
vt -0.320542 -1.233257
vt -0.392641 -1.301900
vt -0.468020 -1.366923
vt -0.546498 -1.428167
vt -0.627887 -1.485489
vt -0.711992 -1.538747
vt -0.798607 -1.587814
vt -0.887526 -1.632573
vt -0.978535 -1.672913
vt -1.071413 -1.708741
vt -1.165937 -1.739967
vt -1.261879 -1.766518
vt -1.359008 -1.788329
vt -1.457092 -1.805348
vt -1.555891 -1.817534
vt -1.655174 -1.824859
vt -1.754689 -1.916466
vt 4.862042 2.406466
vt 4.862042 2.406466
vt -1.858583 -1.913915
vt 4.862042 2.406466
vt -1.962226 -1.906270
vt 4.862042 2.406466
vt -2.065369 -1.893549
vt 4.862042 2.406466
vt -2.167764 -1.875781
vt 4.862042 2.406466
vt -2.269164 -1.853011
vt 4.862042 2.406466
vt -2.369324 -1.825293
vt 4.862042 2.406466
vt -2.468004 -1.792694
vt 4.862042 2.406466
vt -2.564965 -1.755291
vt 4.862042 2.406466
vt -2.659974 -1.713177
vt 4.862042 2.406466
vt -2.752803 -1.666451
vt 4.862042 2.406466
vt -2.843226 -1.615227
vt 4.862042 2.406466
vt -2.931028 -1.559627
vt 4.862042 2.406466
vt -3.015995 -1.499786
vt 4.862042 2.406466
vt -3.097924 -1.435848
vt 4.862042 2.406466
vt -3.176617 -1.367967
vt 4.862042 2.406466
vt -3.251885 -1.296307
vt 4.862042 2.406466
vt -3.323545 -1.221040
vt -3.391425 -1.142347
vt 4.862042 2.406466
vt -3.455363 -1.060418
vt 4.862042 2.406466
vt -3.515205 -0.975450
vt 4.862042 2.406466
vt -3.570804 -0.887649
vt 4.862042 2.406466
vt -3.622029 -0.797225
vt 4.862042 2.406466
vt -3.668754 -0.704397
vt 4.862042 2.406466
vt -3.710869 -0.609388
vt 4.862042 2.406466
vt -3.748271 -0.512427
vt 4.862042 2.406466
vt -3.780871 -0.413747
vt 4.862042 2.406466
vt -3.808588 -0.313587
vt 4.862042 2.406466
vt -3.831358 -0.212187
vt 4.862042 2.406466
vt -3.849126 -0.109792
vt 4.862042 2.406466
vt -3.861848 -0.006648
vt 4.862042 2.406466
vt -3.869493 0.096995
vt 4.862042 2.406466
vt -3.872043 0.200888
vt 4.862042 2.406466
vt -3.869493 0.304782
vt 4.862042 2.406466
vt -3.861848 0.408425
vt 4.862042 2.406466
vt -3.849126 0.511569
vt 4.862042 2.406466
vt -3.831358 0.613964
vt 4.862042 2.406466
vt -3.808588 0.715364
vt 4.862042 2.406466
vt -3.780871 0.815524
vt 4.862042 2.406466
vt -3.748271 0.914204
vt 4.862042 2.406466
vt -3.710869 1.011165
vt 4.862042 2.406466
vt -3.668754 1.106174
vt 4.862042 2.406466
vt -3.622029 1.199002
vt 4.862042 2.406466
vt -3.570804 1.289426
vt 4.862042 2.406466
vt -3.515205 1.377227
vt 4.862042 2.406466
vt -3.455363 1.462195
vt 4.862042 2.406466
vt -3.391425 1.544124
vt 4.862042 2.406466
vt -3.323545 1.622817
vt 4.862042 2.406466
vt -3.251885 1.698084
vt 4.862042 2.406466
vt -3.176617 1.769745
vt 4.862042 2.406466
vt -3.097924 1.837625
vt 4.862042 2.406466
vt -3.015995 1.901563
vt 4.862042 2.406466
vt -2.931028 1.961404
vt 4.862042 2.406466
vt -2.843226 2.017004
vt 4.862042 2.406466
vt -2.752803 2.068228
vt 4.862042 2.406466
vt -2.659974 2.114954
vt 4.862042 2.406466
vt -2.564965 2.157069
vt 4.862042 2.406466
vt -2.468004 2.194471
vt 4.862042 2.406466
vt -2.369324 2.227070
vt 4.862042 2.406466
vt -2.269164 2.254788
vt 4.862042 2.406466
vt -2.167764 2.277558
vt 4.862042 2.406466
vt -2.065369 2.295325
vt 4.862042 2.406466
vt -1.962226 2.308047
vt 4.862042 2.406466
vt -1.858583 2.315692
vt 4.862042 2.406466
vt -1.754689 2.318243
vt 4.862042 2.406466
vt -1.650795 2.315692
vt 4.862042 2.406466
vt -1.547152 2.308047
vt 4.862042 2.406466
vt -1.444008 2.295325
vt 4.862042 2.406466
vt -1.341614 2.277558
vt 4.862042 2.406466
vt -1.240213 2.254788
vt 4.862042 2.406466
vt -1.140053 2.227070
vt 4.862042 2.406466
vt -1.041374 2.194471
vt 4.862042 2.406466
vt -0.944412 2.157069
vt 4.862042 2.406466
vt -0.849403 2.114954
vt 4.862042 2.406466
vt -0.756575 2.068228
vt 4.862042 2.406466
vt -0.666151 2.017004
vt 4.862042 2.406466
vt -0.578350 1.961404
vt 4.862042 2.406466
vt -0.493383 1.901563
vt 4.862042 2.406466
vt -0.411453 1.837625
vt 4.862042 2.406466
vt -0.332760 1.769745
vt 4.862042 2.406466
vt 4.862042 2.406466
vt -0.257493 1.698084
vt 4.862042 2.406466
vt -0.185833 1.622817
vt 4.862042 2.406466
vt -0.117952 1.544124
vt 4.862042 2.406466
vt -0.054014 1.462195
vt 4.862042 2.406466
vt 0.005827 1.377227
vt 4.862042 2.406466
vt 0.061427 1.289426
vt 4.862042 2.406466
vt 0.112651 1.199002
vt 4.862042 2.406466
vt 0.159377 1.106174
vt 4.862042 2.406466
vt 0.201491 1.011165
vt 4.862042 2.406466
vt 0.238893 0.914204
vt 4.862042 2.406466
vt 0.271493 0.815524
vt 4.862042 2.406466
vt 0.299211 0.715364
vt 4.862042 2.406466
vt 0.321981 0.613964
vt 4.862042 2.406466
vt 0.339748 0.511569
vt 4.862042 2.406466
vt 0.352470 0.408425
vt 4.862042 2.406466
vt 0.360115 0.304782
vt 4.862042 2.406466
vt 0.362665 0.200888
vt 4.862042 2.406466
vt 0.360115 0.096995
vt 4.862042 2.406466
vt 0.352470 -0.006648
vt 4.862042 2.406466
vt 0.339748 -0.109792
vt 4.862042 2.406466
vt 0.321981 -0.212187
vt 4.862042 2.406466
vt 0.299211 -0.313587
vt 4.862042 2.406466
vt 0.271493 -0.413747
vt 4.862042 2.406466
vt 0.238893 -0.512427
vt 4.862042 2.406466
vt 0.201491 -0.609388
vt 4.862042 2.406466
vt 0.159377 -0.704397
vt 4.862042 2.406466
vt 0.112651 -0.797225
vt 4.862042 2.406466
vt 0.061427 -0.887649
vt 4.862042 2.406466
vt 0.005827 -0.975450
vt 4.862042 2.406466
vt -0.054014 -1.060418
vt 4.862042 2.406466
vt -0.117952 -1.142347
vt 4.862042 2.406466
vt -0.185833 -1.221040
vt 4.862042 2.406466
vt -0.257493 -1.296307
vt 4.862042 2.406466
vt -0.332760 -1.367967
vt 4.862042 2.406466
vt -0.411453 -1.435848
vt 4.862042 2.406466
vt -0.493383 -1.499786
vt 4.862042 2.406466
vt -0.578350 -1.559627
vt 4.862042 2.406466
vt -0.666151 -1.615227
vt 4.862042 2.406466
vt -0.756575 -1.666451
vt 4.862042 2.406466
vt -0.849403 -1.713177
vt 4.862042 2.406466
vt -0.944412 -1.755291
vt 4.862042 2.406466
vt -1.041374 -1.792694
vt -1.140053 -1.825293
vt 4.862042 2.406466
vt -1.240213 -1.853011
vt 4.862042 2.406466
vt -1.341614 -1.875781
vt 4.862042 2.406466
vt -1.444008 -1.893549
vt 4.862042 2.406466
vt -1.547152 -1.906270
vt 4.862042 2.406466
vt -1.650795 -1.913915
vt 4.862042 2.406466
s 0
f 129/129/1 256/383/1 255/381/1 254/379/1 253/377/1 252/375/1 251/373/1 250/371/1 249/369/1 248/367/1 247/365/1 246/363/1 245/361/1 244/359/1 243/357/1 242/355/1 241/353/1 240/351/1 239/349/1 238/347/1 237/345/1 236/343/1 235/341/1 234/339/1 233/337/1 232/335/1 231/333/1 230/331/1 229/329/1 228/327/1 227/325/1 226/323/1 225/321/1 224/319/1 223/317/1 222/315/1 221/313/1 220/311/1 219/309/1 218/307/1 217/305/1 216/303/1 215/301/1 214/299/1 213/297/1 212/295/1 211/293/1 210/291/1 209/289/1 208/287/1 207/285/1 206/283/1 205/281/1 204/279/1 203/277/1 202/275/1 201/273/1 200/271/1 199/269/1 198/267/1 197/265/1 196/263/1 195/261/1 194/259/1 193/257/1 192/255/1 191/253/1 190/251/1 189/249/1 188/247/1 187/245/1 186/243/1 185/241/1 184/239/1 183/237/1 182/235/1 181/233/1 180/231/1 179/229/1 178/227/1 177/225/1 176/223/1 175/221/1 174/219/1 173/217/1 172/215/1 171/213/1 170/211/1 169/209/1 168/207/1 167/205/1 166/203/1 165/201/1 164/199/1 163/197/1 162/195/1 161/193/1 160/191/1 159/189/1 158/187/1 157/185/1 156/183/1 155/181/1 154/179/1 153/177/1 152/175/1 151/173/1 150/171/1 149/169/1 148/167/1 147/165/1 146/163/1 145/161/1 144/159/1 143/157/1 142/155/1 141/153/1 140/151/1 139/149/1 138/147/1 137/145/1 136/143/1 135/141/1 134/139/1 133/137/1 132/135/1 131/133/1 130/131/1
f 18/18/2 402/547/2 403/550/2 19/19/2
f 122/122/3 506/755/3 507/758/3 123/123/3
f 170/212/4 298/426/4 297/425/4 169/210/4
f 17/17/5 401/545/5 402/547/5 18/18/5
f 121/121/6 505/753/6 506/755/6 122/122/6
f 169/210/7 297/425/7 296/424/7 168/208/7
f 16/16/8 400/543/8 401/545/8 17/17/8
f 120/120/9 504/751/9 505/753/9 121/121/9
f 168/208/10 296/424/10 295/423/10 167/206/10
f 15/15/11 399/541/11 400/543/11 16/16/11
f 119/119/12 503/749/12 504/751/12 120/120/12
f 167/206/13 295/423/13 294/422/13 166/204/13
f 14/14/14 398/539/14 399/541/14 15/15/14
f 118/118/15 502/747/15 503/749/15 119/119/15
f 166/204/16 294/422/16 293/421/16 165/202/16
f 13/13/17 397/537/17 398/539/17 14/14/17
f 117/117/18 501/745/18 502/747/18 118/118/18
f 165/202/19 293/421/19 292/420/19 164/200/19
f 12/12/20 396/535/20 397/537/20 13/13/20
f 116/116/21 500/743/21 501/745/21 117/117/21
f 164/200/22 292/420/22 291/419/22 163/198/22
f 11/11/23 395/533/23 396/535/23 12/12/23
f 115/115/24 499/741/24 500/743/24 116/116/24
f 163/198/25 291/419/25 290/418/25 162/196/25
f 10/10/26 394/531/26 395/533/26 11/11/26
f 114/114/27 498/739/27 499/741/27 115/115/27
f 162/196/28 290/418/28 289/417/28 161/194/28
f 9/9/29 393/529/29 394/531/29 10/10/29
f 113/113/30 497/737/30 498/739/30 114/114/30
f 161/194/31 289/417/31 288/416/31 160/192/31
f 8/8/32 392/527/32 393/529/32 9/9/32
f 112/112/33 496/735/33 497/737/33 113/113/33
f 160/192/34 288/416/34 287/415/34 159/190/34
f 7/7/35 391/525/35 392/527/35 8/8/35
f 111/111/36 495/733/36 496/735/36 112/112/36
f 159/190/37 287/415/37 286/414/37 158/188/37
f 6/6/38 390/523/38 391/525/38 7/7/38
f 110/110/39 494/731/39 495/733/39 111/111/39
f 158/188/40 286/414/40 285/413/40 157/186/40
f 5/5/41 389/521/41 390/523/41 6/6/41
f 109/109/42 493/729/42 494/731/42 110/110/42
f 157/186/43 285/413/43 284/412/43 156/184/43
f 4/4/44 388/519/44 389/521/44 5/5/44
f 108/108/45 492/727/45 493/729/45 109/109/45
f 156/184/46 284/412/46 283/411/46 155/182/46
f 3/3/47 387/517/47 388/519/47 4/4/47
f 107/107/48 491/725/48 492/727/48 108/108/48
f 155/182/49 283/411/49 282/410/49 154/180/49
f 2/2/50 386/515/50 387/517/50 3/3/50
f 106/106/51 490/723/51 491/725/51 107/107/51
f 154/180/52 282/410/52 281/409/52 153/178/52
f 1/1/53 385/514/53 386/515/53 2/2/53
f 105/105/4 489/721/4 490/723/4 106/106/4
f 153/178/54 281/409/54 280/408/54 152/176/54
f 129/130/55 257/385/55 384/512/55 256/384/55
f 104/104/7 488/719/7 489/721/7 105/105/7
f 152/176/56 280/408/56 279/407/56 151/174/56
f 256/384/57 384/512/57 383/511/57 255/382/57
f 103/103/10 487/717/10 488/719/10 104/104/10
f 151/174/58 279/407/58 278/406/58 150/172/58
f 255/382/59 383/511/59 382/510/59 254/380/59
f 102/102/13 486/715/13 487/717/13 103/103/13
f 150/172/60 278/406/60 277/405/60 149/170/60
f 254/380/61 382/510/61 381/509/61 253/378/61
f 101/101/16 485/713/16 486/715/16 102/102/16
f 149/170/62 277/405/62 276/404/62 148/168/62
f 253/378/63 381/509/63 380/508/63 252/376/63
f 100/100/19 484/711/19 485/713/19 101/101/19
f 148/168/64 276/404/64 275/403/64 147/166/64
f 252/376/65 380/508/65 379/507/65 251/374/65
f 99/99/22 483/709/22 484/711/22 100/100/22
f 147/166/66 275/403/66 274/402/66 146/164/66
f 251/374/67 379/507/67 378/506/67 250/372/67
f 98/98/25 482/707/25 483/709/25 99/99/25
f 146/164/68 274/402/68 273/401/68 145/162/68
f 250/372/69 378/506/69 377/505/69 249/370/69
f 97/97/28 481/705/28 482/707/28 98/98/28
f 145/162/70 273/401/70 272/400/70 144/160/70
f 249/370/71 377/505/71 376/504/71 248/368/71
f 96/96/31 480/703/31 481/705/31 97/97/31
f 144/160/72 272/400/72 271/399/72 143/158/72
f 248/368/73 376/504/73 375/503/73 247/366/73
f 95/95/34 479/701/34 480/703/34 96/96/34
f 143/158/74 271/399/74 270/398/74 142/156/74
f 247/366/75 375/503/75 374/502/75 246/364/75
f 94/94/37 478/699/37 479/701/37 95/95/37
f 142/156/76 270/398/76 269/397/76 141/154/76
f 246/364/77 374/502/77 373/501/77 245/362/77
f 93/93/40 477/697/40 478/699/40 94/94/40
f 141/154/78 269/397/78 268/396/78 140/152/78
f 245/362/79 373/501/79 372/500/79 244/360/79
f 92/92/43 476/695/43 477/697/43 93/93/43
f 140/152/80 268/396/80 267/395/80 139/150/80
f 244/360/81 372/500/81 371/499/81 243/358/81
f 91/91/46 475/693/46 476/695/46 92/92/46
f 139/150/82 267/395/82 266/394/82 138/148/82
f 243/358/83 371/499/83 370/498/83 242/356/83
f 90/90/49 474/691/49 475/693/49 91/91/49
f 138/148/84 266/394/84 265/393/84 137/146/84
f 242/356/85 370/498/85 369/497/85 241/354/85
f 89/89/52 473/689/52 474/691/52 90/90/52
f 137/146/86 265/393/86 264/392/86 136/144/86
f 241/354/87 369/497/87 368/496/87 240/352/87
f 88/88/54 472/687/54 473/689/54 89/89/54
f 136/144/88 264/392/88 263/391/88 135/142/88
f 240/352/89 368/496/89 367/495/89 239/350/89
f 87/87/56 471/685/56 472/687/56 88/88/56
f 135/142/90 263/391/90 262/390/90 134/140/90
f 239/350/91 367/495/91 366/494/91 238/348/91
f 86/86/58 470/683/58 471/685/58 87/87/58
f 134/140/92 262/390/92 261/389/92 133/138/92
f 238/348/93 366/494/93 365/493/93 237/346/93
f 85/85/60 469/681/60 470/683/60 86/86/60
f 133/138/94 261/389/94 260/388/94 132/136/94
f 237/346/95 365/493/95 364/492/95 236/344/95
f 84/84/62 468/679/62 469/681/62 85/85/62
f 132/136/96 260/388/96 259/387/96 131/134/96
f 236/344/97 364/492/97 363/491/97 235/342/97
f 83/83/64 467/677/64 468/679/64 84/84/64
f 131/134/98 259/387/98 258/386/98 130/132/98
f 235/342/99 363/491/99 362/490/99 234/340/99
f 82/82/66 466/675/66 467/677/66 83/83/66
f 130/132/100 258/386/100 257/385/100 129/130/100
f 234/340/101 362/490/101 361/489/101 233/338/101
f 81/81/68 465/673/68 466/675/68 82/82/68
f 233/338/102 361/489/102 360/488/102 232/336/102
f 80/80/70 464/672/70 465/673/70 81/81/70
f 232/336/103 360/488/103 359/487/103 231/334/103
f 258/386/1 386/516/1 385/513/1 257/385/1
f 259/387/1 387/518/1 386/516/1 258/386/1
f 260/388/1 388/520/1 387/518/1 259/387/1
f 261/389/1 389/522/1 388/520/1 260/388/1
f 262/390/1 390/524/1 389/522/1 261/389/1
f 263/391/1 391/526/1 390/524/1 262/390/1
f 264/392/1 392/528/1 391/526/1 263/391/1
f 265/393/1 393/530/1 392/528/1 264/392/1
f 266/394/1 394/532/1 393/530/1 265/393/1
f 267/395/1 395/534/1 394/532/1 266/394/1
f 268/396/1 396/536/1 395/534/1 267/395/1
f 269/397/1 397/538/1 396/536/1 268/396/1
f 270/398/1 398/540/1 397/538/1 269/397/1
f 271/399/1 399/542/1 398/540/1 270/398/1
f 272/400/1 400/544/1 399/542/1 271/399/1
f 273/401/1 401/546/1 400/544/1 272/400/1
f 274/402/1 402/548/1 401/546/1 273/401/1
f 275/403/1 403/549/1 402/548/1 274/402/1
f 276/404/1 404/551/1 403/549/1 275/403/1
f 277/405/1 405/553/1 404/551/1 276/404/1
f 278/406/1 406/555/1 405/553/1 277/405/1
f 279/407/1 407/557/1 406/555/1 278/406/1
f 280/408/1 408/559/1 407/557/1 279/407/1
f 281/409/1 409/561/1 408/559/1 280/408/1
f 282/410/1 410/563/1 409/561/1 281/409/1
f 283/411/1 411/565/1 410/563/1 282/410/1
f 284/412/1 412/567/1 411/565/1 283/411/1
f 285/413/1 413/569/1 412/567/1 284/412/1
f 286/414/1 414/571/1 413/569/1 285/413/1
f 287/415/1 415/573/1 414/571/1 286/414/1
f 288/416/1 416/575/1 415/573/1 287/415/1
f 289/417/1 417/577/1 416/575/1 288/416/1
f 290/418/1 418/579/1 417/577/1 289/417/1
f 291/419/1 419/581/1 418/579/1 290/418/1
f 292/420/1 420/583/1 419/581/1 291/419/1
f 293/421/1 421/585/1 420/583/1 292/420/1
f 294/422/1 422/587/1 421/585/1 293/421/1
f 295/423/1 423/589/1 422/587/1 294/422/1
f 296/424/1 424/591/1 423/589/1 295/423/1
f 297/425/1 425/593/1 424/591/1 296/424/1
f 298/426/1 426/595/1 425/593/1 297/425/1
f 299/427/1 427/597/1 426/595/1 298/426/1
f 300/428/1 428/599/1 427/597/1 299/427/1
f 301/429/1 429/601/1 428/599/1 300/428/1
f 302/430/1 430/603/1 429/601/1 301/429/1
f 303/431/1 431/605/1 430/603/1 302/430/1
f 304/432/1 432/607/1 431/605/1 303/431/1
f 305/433/1 433/609/1 432/607/1 304/432/1
f 306/434/1 434/611/1 433/609/1 305/433/1
f 307/435/1 435/613/1 434/611/1 306/434/1
f 308/436/1 436/615/1 435/613/1 307/435/1
f 309/437/1 437/617/1 436/615/1 308/436/1
f 310/438/1 438/619/1 437/617/1 309/437/1
f 311/439/1 439/621/1 438/619/1 310/438/1
f 312/440/1 440/623/1 439/621/1 311/439/1
f 313/441/1 441/625/1 440/623/1 312/440/1
f 314/442/1 442/627/1 441/625/1 313/441/1
f 315/443/1 443/629/1 442/627/1 314/442/1
f 316/444/1 444/631/1 443/629/1 315/443/1
f 317/445/1 445/633/1 444/631/1 316/444/1
f 318/446/1 446/635/1 445/633/1 317/445/1
f 319/447/1 447/637/1 446/635/1 318/446/1
f 320/448/1 448/639/1 447/637/1 319/447/1
f 321/449/1 449/641/1 448/639/1 320/448/1
f 322/450/1 450/643/1 449/641/1 321/449/1
f 323/451/1 451/645/1 450/643/1 322/450/1
f 324/452/1 452/647/1 451/645/1 323/451/1
f 325/453/1 453/649/1 452/647/1 324/452/1
f 326/454/1 454/651/1 453/649/1 325/453/1
f 327/455/1 455/653/1 454/651/1 326/454/1
f 328/456/1 456/655/1 455/653/1 327/455/1
f 329/457/1 457/657/1 456/655/1 328/456/1
f 330/458/1 458/659/1 457/657/1 329/457/1
f 331/459/1 459/661/1 458/659/1 330/458/1
f 332/460/1 460/663/1 459/661/1 331/459/1
f 333/461/1 461/665/1 460/663/1 332/460/1
f 334/462/1 462/667/1 461/665/1 333/461/1
f 335/463/1 463/669/1 462/667/1 334/462/1
f 336/464/1 464/671/1 463/669/1 335/463/1
f 337/465/1 465/674/1 464/671/1 336/464/1
f 338/466/1 466/676/1 465/674/1 337/465/1
f 339/467/1 467/678/1 466/676/1 338/466/1
f 340/468/1 468/680/1 467/678/1 339/467/1
f 341/469/1 469/682/1 468/680/1 340/468/1
f 342/470/1 470/684/1 469/682/1 341/469/1
f 343/471/1 471/686/1 470/684/1 342/470/1
f 344/472/1 472/688/1 471/686/1 343/471/1
f 345/473/1 473/690/1 472/688/1 344/472/1
f 346/474/1 474/692/1 473/690/1 345/473/1
f 347/475/1 475/694/1 474/692/1 346/474/1
f 348/476/1 476/696/1 475/694/1 347/475/1
f 349/477/1 477/698/1 476/696/1 348/476/1
f 350/478/1 478/700/1 477/698/1 349/477/1
f 351/479/1 479/702/1 478/700/1 350/478/1
f 352/480/1 480/704/1 479/702/1 351/479/1
f 353/481/1 481/706/1 480/704/1 352/480/1
f 354/482/1 482/708/1 481/706/1 353/481/1
f 355/483/1 483/710/1 482/708/1 354/482/1
f 356/484/1 484/712/1 483/710/1 355/483/1
f 357/485/1 485/714/1 484/712/1 356/484/1
f 358/486/1 486/716/1 485/714/1 357/485/1
f 359/487/1 487/718/1 486/716/1 358/486/1
f 360/488/1 488/720/1 487/718/1 359/487/1
f 361/489/1 489/722/1 488/720/1 360/488/1
f 362/490/1 490/724/1 489/722/1 361/489/1
f 363/491/1 491/726/1 490/724/1 362/490/1
f 364/492/1 492/728/1 491/726/1 363/491/1
f 365/493/1 493/730/1 492/728/1 364/492/1
f 366/494/1 494/732/1 493/730/1 365/493/1
f 367/495/1 495/734/1 494/732/1 366/494/1
f 368/496/1 496/736/1 495/734/1 367/495/1
f 369/497/1 497/738/1 496/736/1 368/496/1
f 370/498/1 498/740/1 497/738/1 369/497/1
f 371/499/1 499/742/1 498/740/1 370/498/1
f 372/500/1 500/744/1 499/742/1 371/499/1
f 373/501/1 501/746/1 500/744/1 372/500/1
f 374/502/1 502/748/1 501/746/1 373/501/1
f 375/503/1 503/750/1 502/748/1 374/502/1
f 376/504/1 504/752/1 503/750/1 375/503/1
f 377/505/1 505/754/1 504/752/1 376/504/1
f 378/506/1 506/756/1 505/754/1 377/505/1
f 379/507/1 507/757/1 506/756/1 378/506/1
f 380/508/1 508/759/1 507/757/1 379/507/1
f 381/509/1 509/761/1 508/759/1 380/508/1
f 382/510/1 510/763/1 509/761/1 381/509/1
f 383/511/1 511/765/1 510/763/1 382/510/1
f 384/512/1 512/767/1 511/765/1 383/511/1
f 257/385/1 385/513/1 512/767/1 384/512/1
f 171/214/51 299/427/51 298/426/51 170/212/51
f 123/123/104 507/758/104 508/760/104 124/124/104
f 19/19/105 403/550/105 404/552/105 20/20/105
f 172/216/48 300/428/48 299/427/48 171/214/48
f 124/124/106 508/760/106 509/762/106 125/125/106
f 20/20/107 404/552/107 405/554/107 21/21/107
f 173/218/45 301/429/45 300/428/45 172/216/45
f 125/125/108 509/762/108 510/764/108 126/126/108
f 21/21/109 405/554/109 406/556/109 22/22/109
f 174/220/42 302/430/42 301/429/42 173/218/42
f 126/126/110 510/764/110 511/766/110 127/127/110
f 22/22/111 406/556/111 407/558/111 23/23/111
f 175/222/39 303/431/39 302/430/39 174/220/39
f 127/127/112 511/766/112 512/768/112 128/128/112
f 23/23/113 407/558/113 408/560/113 24/24/113
f 176/224/36 304/432/36 303/431/36 175/222/36
f 128/128/114 512/768/114 385/514/114 1/1/114
f 24/24/115 408/560/115 409/562/115 25/25/115
f 177/226/33 305/433/33 304/432/33 176/224/33
f 25/25/116 409/562/116 410/564/116 26/26/116
f 178/228/30 306/434/30 305/433/30 177/226/30
f 26/26/117 410/564/117 411/566/117 27/27/117
f 179/230/27 307/435/27 306/434/27 178/228/27
f 27/27/118 411/566/118 412/568/118 28/28/118
f 180/232/24 308/436/24 307/435/24 179/230/24
f 28/28/119 412/568/119 413/570/119 29/29/119
f 181/234/21 309/437/21 308/436/21 180/232/21
f 29/29/120 413/570/120 414/572/120 30/30/120
f 182/236/18 310/438/18 309/437/18 181/234/18
f 30/30/121 414/572/121 415/574/121 31/31/121
f 183/238/15 311/439/15 310/438/15 182/236/15
f 31/31/122 415/574/122 416/576/122 32/32/122
f 184/240/12 312/440/12 311/439/12 183/238/12
f 32/32/123 416/576/123 417/578/123 33/33/123
f 185/242/9 313/441/9 312/440/9 184/240/9
f 33/33/124 417/578/124 418/580/124 34/34/124
f 186/244/6 314/442/6 313/441/6 185/242/6
f 34/34/125 418/580/125 419/582/125 35/35/125
f 187/246/3 315/443/3 314/442/3 186/244/3
f 35/35/126 419/582/126 420/584/126 36/36/126
f 188/248/104 316/444/104 315/443/104 187/246/104
f 36/36/127 420/584/127 421/586/127 37/37/127
f 189/250/106 317/445/106 316/444/106 188/248/106
f 37/37/128 421/586/128 422/588/128 38/38/128
f 190/252/108 318/446/108 317/445/108 189/250/108
f 38/38/129 422/588/129 423/590/129 39/39/129
f 191/254/110 319/447/110 318/446/110 190/252/110
f 39/39/103 423/590/103 424/592/103 40/40/103
f 192/256/112 320/448/112 319/447/112 191/254/112
f 40/40/102 424/592/102 425/594/102 41/41/102
f 193/258/114 321/449/114 320/448/114 192/256/114
f 41/41/101 425/594/101 426/596/101 42/42/101
f 194/260/53 322/450/53 321/449/53 193/258/53
f 42/42/99 426/596/99 427/598/99 43/43/99
f 195/262/50 323/451/50 322/450/50 194/260/50
f 43/43/97 427/598/97 428/600/97 44/44/97
f 196/264/47 324/452/47 323/451/47 195/262/47
f 44/44/95 428/600/95 429/602/95 45/45/95
f 197/266/44 325/453/44 324/452/44 196/264/44
f 45/45/93 429/602/93 430/604/93 46/46/93
f 198/268/41 326/454/41 325/453/41 197/266/41
f 46/46/91 430/604/91 431/606/91 47/47/91
f 199/270/38 327/455/38 326/454/38 198/268/38
f 47/47/89 431/606/89 432/608/89 48/48/89
f 200/272/35 328/456/35 327/455/35 199/270/35
f 48/48/87 432/608/87 433/610/87 49/49/87
f 201/274/32 329/457/32 328/456/32 200/272/32
f 49/49/85 433/610/85 434/612/85 50/50/85
f 202/276/29 330/458/29 329/457/29 201/274/29
f 50/50/83 434/612/83 435/614/83 51/51/83
f 203/278/26 331/459/26 330/458/26 202/276/26
f 51/51/81 435/614/81 436/616/81 52/52/81
f 204/280/23 332/460/23 331/459/23 203/278/23
f 52/52/79 436/616/79 437/618/79 53/53/79
f 205/282/20 333/461/20 332/460/20 204/280/20
f 53/53/77 437/618/77 438/620/77 54/54/77
f 206/284/17 334/462/17 333/461/17 205/282/17
f 54/54/75 438/620/75 439/622/75 55/55/75
f 207/286/14 335/463/14 334/462/14 206/284/14
f 55/55/73 439/622/73 440/624/73 56/56/73
f 208/288/11 336/464/11 335/463/11 207/286/11
f 56/56/71 440/624/71 441/626/71 57/57/71
f 209/290/8 337/465/8 336/464/8 208/288/8
f 57/57/69 441/626/69 442/628/69 58/58/69
f 210/292/5 338/466/5 337/465/5 209/290/5
f 58/58/67 442/628/67 443/630/67 59/59/67
f 211/294/2 339/467/2 338/466/2 210/292/2
f 59/59/65 443/630/65 444/632/65 60/60/65
f 212/296/105 340/468/105 339/467/105 211/294/105
f 60/60/63 444/632/63 445/634/63 61/61/63
f 213/298/107 341/469/107 340/468/107 212/296/107
f 61/61/61 445/634/61 446/636/61 62/62/61
f 214/300/109 342/470/109 341/469/109 213/298/109
f 62/62/59 446/636/59 447/638/59 63/63/59
f 215/302/111 343/471/111 342/470/111 214/300/111
f 63/63/57 447/638/57 448/640/57 64/64/57
f 216/304/113 344/472/113 343/471/113 215/302/113
f 64/64/55 448/640/55 449/642/55 65/65/55
f 217/306/115 345/473/115 344/472/115 216/304/115
f 65/65/100 449/642/100 450/644/100 66/66/100
f 218/308/116 346/474/116 345/473/116 217/306/116
f 66/66/98 450/644/98 451/646/98 67/67/98
f 219/310/117 347/475/117 346/474/117 218/308/117
f 67/67/96 451/646/96 452/648/96 68/68/96
f 220/312/118 348/476/118 347/475/118 219/310/118
f 68/68/94 452/648/94 453/650/94 69/69/94
f 221/314/119 349/477/119 348/476/119 220/312/119
f 69/69/92 453/650/92 454/652/92 70/70/92
f 222/316/120 350/478/120 349/477/120 221/314/120
f 70/70/90 454/652/90 455/654/90 71/71/90
f 223/318/121 351/479/121 350/478/121 222/316/121
f 71/71/88 455/654/88 456/656/88 72/72/88
f 224/320/122 352/480/122 351/479/122 223/318/122
f 72/72/86 456/656/86 457/658/86 73/73/86
f 225/322/123 353/481/123 352/480/123 224/320/123
f 73/73/84 457/658/84 458/660/84 74/74/84
f 226/324/124 354/482/124 353/481/124 225/322/124
f 74/74/82 458/660/82 459/662/82 75/75/82
f 227/326/125 355/483/125 354/482/125 226/324/125
f 75/75/80 459/662/80 460/664/80 76/76/80
f 228/328/126 356/484/126 355/483/126 227/326/126
f 76/76/78 460/664/78 461/666/78 77/77/78
f 229/330/127 357/485/127 356/484/127 228/328/127
f 77/77/76 461/666/76 462/668/76 78/78/76
f 230/332/128 358/486/128 357/485/128 229/330/128
f 78/78/74 462/668/74 463/670/74 79/79/74
f 231/334/129 359/487/129 358/486/129 230/332/129
f 79/79/72 463/670/72 464/672/72 80/80/72
