# Blender 5.1.2
# www.blender.org
mtllib Triangle.mtl
o Cube
v 1.000000 1.000000 -1.000000
v 1.000000 -1.000000 -1.000000
v 1.000000 1.000000 1.000000
v 1.000000 -1.000000 1.000000
v -1.000000 1.000000 1.000000
v -1.000000 -1.000000 1.000000
vn -0.0000 1.0000 -0.0000
vn -0.0000 -0.0000 1.0000
vn -0.7071 -0.0000 -0.7071
vn -0.0000 -1.0000 -0.0000
vn 1.0000 -0.0000 -0.0000
vt 0.625000 0.750000
vt 0.625000 0.500000
vt 0.625000 1.000000
vt 0.375000 0.750000
vt 0.375000 1.000000
vt 0.375000 0.500000
s 0
usemtl Material
f 3/1/1 1/2/1 5/3/1
f 4/4/2 3/1/2 5/3/2 6/5/2
f 2/6/3 6/5/3 5/3/3 1/2/3
f 2/6/4 4/4/4 6/5/4
f 2/6/5 1/2/5 3/1/5 4/4/5
